<?xml version="1.0" encoding="UTF-8"?>
<svg width="194px" height="151px" viewBox="0 0 194 151" version="1.1" xmlns="http://www.w3.org/2000/svg" xmlns:xlink="http://www.w3.org/1999/xlink">
    <!-- Generator: Sketch 54.1 (76490) - https://sketchapp.com -->
    <title>undraw_mobile_app_0irr</title>
    <desc>Created with Sketch.</desc>
    <defs>
        <linearGradient x1="50%" y1="0%" x2="50%" y2="100%" id="linearGradient-1">
            <stop stop-color="#A59CFF" offset="0%"></stop>
            <stop stop-color="#6C63FF" offset="100%"></stop>
        </linearGradient>
    </defs>
    <g id="v2.0" stroke="none" stroke-width="1" fill="none" fill-rule="evenodd">
        <g id="基金信息-点击购买" transform="translate(-110.000000, -388.000000)">
            <g id="编组-8" transform="translate(37.000000, 370.000000)">
                <g id="undraw_mobile_app_0irr" transform="translate(73.000000, 18.000000)">
                    <path d="M143.605647,86.215729 L105.112579,38.0003536 C103.364736,39.6025562 101.211245,40.6924981 98.8873283,41.1511268 C91.6406111,42.5816736 84.5635311,37.6213216 83.0802243,30.0718703 C82.0316952,24.7352599 84.0615007,19.5363279 87.8997677,16.4400689 L74.7747326,0 L0,64.057244 L68.8309023,150.272973 L143.605647,86.215729 Z" id="路径" fill="#F2F2F2" fill-rule="nonzero"></path>
                    <path d="M62.2987405,47.1765034 L30.2266965,53.7458045 C28.3912727,54.1217543 26.8237318,55.3091488 25.9618434,56.9763826 C25.099955,58.6436163 25.0360857,60.6120158 25.7880724,62.3318628 L62.3507049,145.953262 C64.0110059,149.750488 68.246469,151.698105 72.2009061,150.482735 L109.154907,139.079335 C111.139511,138.466919 112.747699,136.998333 113.540395,135.074542 C114.33309,133.150751 114.227504,130.972672 113.252465,129.13498 L72.0278765,51.4374691 C70.007861,48.1003381 66.1140654,46.3950141 62.2987405,47.1765034 Z" id="路径" fill="#3F3D56" fill-rule="nonzero"></path>
                    <path d="M30.1858306,54.5609962 L35.4591941,53.5187217 L35.4591941,53.5187217 C36.1883339,55.0366599 37.8376741,55.8811049 39.4919966,55.5834745 L58.548273,52.1550495 C58.9302121,52.0863348 59.2635136,51.8546532 59.4615955,51.5201888 C59.6596774,51.1857245 59.7029889,50.7814892 59.580279,50.4124915 L59.0618974,48.8536909 L64.3104586,47.8163169 C66.5415691,47.3753405 68.7997467,48.4386934 69.8854931,50.441544 L112.577916,129.195238 C113.321349,130.566633 113.410152,132.200424 112.819761,133.64466 C112.22937,135.088897 111.022372,136.190474 109.532656,136.644666 L73.14774,147.737837 C70.0107418,148.694255 66.6533024,147.165557 65.3080221,144.168285 L27.4621225,59.8479628 C26.9877982,58.7911723 27.0205043,57.5751882 27.550947,56.5455504 C28.0813897,55.5159126 29.0515824,54.7851782 30.1858306,54.5609962 Z" id="路径" fill="url(#linearGradient-1)" fill-rule="nonzero"></path>
                    <path d="M52.8762184,51.0804322 L45.0842514,52.6825542" id="路径" stroke="#2F2E41" stroke-width="0.5"></path>
                    <ellipse id="椭圆形" fill="#2F2E41" fill-rule="nonzero" cx="43.0863111" cy="52.9829521" rx="1" ry="1"></ellipse>
                    <polygon id="路径" fill="#FFFFFF" fill-rule="nonzero" points="48.2810257 60.4929231 82.6455984 134.390801 130.396371 121.37356 130.396371 119.771438 93.2346818 50.2793952 49.0802019 59.8921273 48.8704181 60.0503369"></polygon>
                    <polygon id="路径" fill="#000000" fill-rule="nonzero" opacity="0.2" points="48.2810257 60.4929231 82.6455984 134.390801 130.396371 121.37356 130.396371 119.771438 82.8453924 133.18921 48.8704181 60.0503369"></polygon>
                    <path d="M109.617722,91.7342784 L74.4539733,100.746215" id="路径" stroke="#3F3D56" stroke-width="0.5" fill="#3F3D56" fill-rule="nonzero"></path>
                    <path d="M111.615662,95.5393181 L76.2521196,104.75152" id="路径" stroke="#3F3D56" stroke-width="0.5" fill="#3F3D56" fill-rule="nonzero"></path>
                    <path d="M107.0204,100.746215 L84.8432627,106.754172" id="路径" stroke="#3F3D56" stroke-width="0.5" fill="#3F3D56" fill-rule="nonzero"></path>
                    <polygon id="路径" fill="#6C63FF" fill-rule="nonzero" points="86.8412729 117.768785 90.0799341 124.836146 90.2377714 125.178599 90.7892029 125.038414 117.609553 118.169316 117.609553 117.167989 114.013261 110.358971 87.440655 117.56852 87.2029001 117.648626"></polygon>
                    <polygon id="路径" fill="#000000" fill-rule="nonzero" opacity="0.2" points="86.8412729 117.768785 90.0799341 124.836146 90.2377714 125.178599 90.7892029 125.038414 117.609553 118.169316 117.609553 117.167989 90.6373594 124.377538 87.2029001 117.648626"></polygon>
                    <path d="M16.4138085,150.712395 L193.830904,150.712395" id="路径" stroke="#3F3D56" stroke-width="0.5" opacity="0.100000001"></path>
                    <path d="M89.2185601,75.8966834 C86.9306448,69.9033592 80.6129998,66.4687521 75.5411905,68.0869654 C70.8921133,69.5703021 68.9823522,74.8342823 70.9362598,79.9526696 C72.8901675,85.0710569 78.2069043,88.7318156 83.1740795,88.0817566 C88.5929091,87.3725813 91.5064754,81.8900016 89.2185601,75.8966834 Z" id="路径" stroke="#3F3D56" stroke-width="0.5" fill="#3F3D56" fill-rule="nonzero"></path>
                    <path d="M89.2185601,75.8966834 C86.9306448,69.9033592 80.6129998,66.4687521 75.5411905,68.0869654 C70.8921133,69.5703021 68.9823522,74.8342823 70.9362598,79.9526696 C72.8901675,85.0710569 78.2069043,88.7318156 83.1740795,88.0817566 C88.5929091,87.3725813 91.5064754,81.8900016 89.2185601,75.8966834 Z" id="路径" fill="#000000" fill-rule="nonzero" opacity="0.2"></path>
                    <path d="M90.2175302,74.8953571 C87.9296149,68.902033 81.6119699,65.4674258 76.5401606,67.0856392 C71.8910835,68.5689758 69.9813223,73.832956 71.93523,78.9513433 C73.8891376,84.0697306 79.2058745,87.7304893 84.1730497,87.0804303 C89.5918792,86.371255 92.5054456,80.8886753 90.2175302,74.8953571 Z" id="路径" stroke="#3F3D56" stroke-width="0.5" fill="#3F3D56" fill-rule="nonzero"></path>
                    <ellipse id="椭圆形" stroke="#3F3D56" stroke-width="0.5" cx="123.758224" cy="11.3982731" rx="2.94807275" ry="2.95502594"></ellipse>
                    <ellipse id="椭圆形" stroke="#3F3D56" stroke-width="0.5" cx="162.718059" cy="97.3120662" rx="2.94807275" ry="2.95502594"></ellipse>
                    <ellipse id="椭圆形" stroke="#3F3D56" stroke-width="0.5" cx="34.1039853" cy="18.8080874" rx="2.94807275" ry="2.95502594"></ellipse>
                    <ellipse id="椭圆形" fill="#F2F2F2" fill-rule="nonzero" cx="95.7765753" cy="27.9829435" rx="10.8518445" ry="10.8774392"></ellipse>
                    <ellipse id="椭圆形" fill="#2F2E41" fill-rule="nonzero" cx="138.44797" cy="47.0456461" rx="7.35239022" ry="7.36973123"></ellipse>
                    <polygon id="路径" fill="#9F616A" fill-rule="nonzero" points="146.379893 139.397432 147.778451 145.40539 144.381953 145.40539 142.983394 138.596371"></polygon>
                    <polygon id="路径" fill="#9F616A" fill-rule="nonzero" points="129.996783 139.397432 129.996783 145.004859 126.600284 145.40539 126.600284 139.397432"></polygon>
                    <path d="M147.378795,75.7130602 C147.378795,75.7130602 146.979207,84.324466 146.579619,84.9252618 C146.180031,85.5260575 142.583738,94.1374634 142.583738,94.1374634 L140.785592,88.5300363 C140.785592,88.5300363 143.582709,83.9239355 143.183121,81.3204873 C142.783532,78.717039 143.035273,75.5133737 143.035273,75.5133737 L147.378795,75.7130602 Z" id="路径" fill="#9F616A" fill-rule="nonzero"></path>
                    <ellipse id="椭圆形" fill="#9F616A" fill-rule="nonzero" cx="135.990534" cy="49.2780449" rx="5.59423275" ry="5.60742706"></ellipse>
                    <path d="M140.585798,49.8788427 C140.585798,49.8788427 140.386004,57.8894528 141.784562,59.0910443 C143.183121,60.2926358 133.792801,59.2913095 133.792801,59.2913095 C133.792801,59.2913095 135.790742,53.6838825 134.192389,52.482291 C132.594037,51.2806995 140.585798,49.8788427 140.585798,49.8788427 Z" id="路径" fill="#9F616A" fill-rule="nonzero"></path>
                    <path d="M133.193419,58.890779 C133.193419,58.890779 134.392183,56.6878613 135.990536,56.8881265 C137.588888,57.0883918 142.783532,57.4889223 142.983327,57.8894528 C143.183121,58.2899833 143.782503,59.69184 144.182091,60.0923705 C144.581679,60.492901 147.578589,61.0936968 147.778383,63.4968798 C147.978177,65.9000629 140.585798,80.5194262 140.585798,80.5194262 C140.585798,80.5194262 141.584768,83.9239355 141.384974,84.7249965 C141.18518,85.5260575 142.383944,87.9292406 142.18415,88.9305668 C141.984356,89.9318931 145.181061,95.9398506 143.582709,103.750195 L143.582709,116.366906 C143.582709,116.366906 148.977147,138.195819 147.378795,139.797941 C145.780443,141.400063 140.386004,140.398737 139.387034,139.797941 C138.388064,139.197145 134.192389,108.957092 134.192389,108.957092 L132.194449,98.7435642 L131.994655,121.173272 C131.994655,121.173272 132.394243,139.998206 130.995685,140.599002 C129.597127,141.199798 124.202688,141.400063 123.8031,140.198471 C123.491453,139.261328 121.964515,114.326466 121.307509,103.396439 C121.079901,99.6237045 121.375947,95.8375627 122.18717,92.1464403 C123.018731,88.3658969 124.225964,83.9242359 125.60125,82.1215483 C128.198573,78.717039 129.796925,67.9027154 129.796925,67.9027154 L126.400426,61.6944926 C126.400426,61.6944926 128.398367,59.69184 129.597131,59.69184 C130.795895,59.69184 133.193419,58.890779 133.193419,58.890779 Z" id="路径" fill="#2F2E41" fill-rule="nonzero"></path>
                    <path d="M146.579619,62.0950231 L147.633247,62.8138492 C147.633247,62.8138492 148.377765,75.7130602 147.778383,76.5141212 C147.179001,77.3151822 143.011841,76.9242164 142.697893,76.2185057 C142.383944,75.5127949 146.579619,62.0950231 146.579619,62.0950231 Z" id="路径" fill="#2F2E41" fill-rule="nonzero"></path>
                    <path d="M128.762659,73.8232632 C129.347482,77.8899655 129.85999,81.5101124 126.869641,84.7852083 C123.864399,88.0997106 120.474957,91.0425535 116.773335,93.5512069 C116.406575,94.5250487 111.02222,101.676403 110.74832,98.8238085 C110.474421,95.9712142 112.334697,93.7348902 114.978262,91.3226391 C117.621826,88.9103881 121.320198,83.6764397 123.40695,80.8045679 C125.493703,77.9326961 124.634615,76.1418261 124.562131,73.7430149 C124.489648,71.3442036 127.942155,73.8522936 128.762659,73.8232632 Z" id="路径" fill="#9F616A" fill-rule="nonzero"></path>
                    <path d="M126.600216,141.760382 C126.600216,141.760382 126.400422,144.003511 125.80104,144.604307 C125.201658,145.205103 123.603306,146.006164 123.8031,148.209081 C124.002894,150.411999 125.301555,150.512132 125.301555,150.512132 L125.201658,150.011469 L125.80104,150.211734 L125.900937,150.512132 L131.49517,150.512132 C131.49517,150.512132 131.595067,148.409347 131.395273,147.40802 C131.195479,146.406694 131.195479,141.600328 130.596097,141.800593 C129.996715,142.000859 128.398363,142.201124 127.998775,143.002185 C127.599186,143.803246 126.400422,143.522558 126.600216,141.760382 Z" id="路径" fill="#2F2E41" fill-rule="nonzero"></path>
                    <path d="M146.979207,141.760382 C146.979207,141.760382 147.179001,144.003511 147.778383,144.604307 C148.377765,145.205103 149.976117,146.006164 149.776323,148.209081 C149.576529,150.411999 148.277868,150.512132 148.277868,150.512132 L148.377765,150.011469 L147.778383,150.211734 L147.678486,150.512132 L142.084253,150.512132 C142.084253,150.512132 141.984356,148.409347 142.18415,147.40802 C142.383944,146.406694 142.383944,141.600328 142.983327,141.800593 C143.582709,142.000859 145.181061,142.201124 145.580649,143.002185 C145.980237,143.803246 147.179001,143.522558 146.979207,141.760382 Z" id="路径" fill="#2F2E41" fill-rule="nonzero"></path>
                    <path d="M129.197539,61.0936968 L126.400422,61.6944926 C126.400422,61.6944926 126.400422,66.1003281 125.601246,67.9027154 C124.80207,69.7051026 123.403512,73.9106729 124.002894,74.1109382 C124.602276,74.3112034 130.196509,77.114917 130.596097,75.5127949 C130.995685,73.9106729 131.994655,61.0936968 129.197539,61.0936968 Z" id="路径" fill="#2F2E41" fill-rule="nonzero"></path>
                    <ellipse id="椭圆形" fill="#2F2E41" fill-rule="nonzero" cx="146.413059" cy="37.3421678" rx="7.35239022" ry="7.36973123"></ellipse>
                    <path d="M152.754887,43.4447788 C150.823931,44.843689 148.336448,45.2180752 146.08077,44.4492866 C143.825092,43.6804981 142.080858,41.8638418 141.40085,39.5750533 C141.746601,42.3311355 143.608947,44.6582548 146.21806,45.5944606 C148.827172,46.5306664 151.739806,45.9169135 153.751981,44.006906 C155.764156,42.0968984 156.534037,39.2151139 155.743382,36.5527823 C156.078859,39.2249522 154.932931,41.8676648 152.754887,43.4447788 Z" id="路径" fill="#2F2E41" fill-rule="nonzero"></path>
                    <ellipse id="椭圆形" fill="#2F2E41" fill-rule="nonzero" cx="140.408605" cy="48.273933" rx="5.39175349" ry="5.40447024"></ellipse>
                    <ellipse id="椭圆形" fill="#2F2E41" fill-rule="nonzero" cx="135.874633" cy="46.2472546" rx="4.77905314" ry="3.74627996"></ellipse>
                    <ellipse id="椭圆形" fill="#A0616A" fill-rule="nonzero" cx="134.599923" cy="50.0860531" rx="1" ry="1.60851248"></ellipse>
                </g>
            </g>
        </g>
    </g>
</svg>