<?xml version="1.0" encoding="UTF-8"?>
<svg width="13px" height="13px" viewBox="0 0 13 13" version="1.1" xmlns="http://www.w3.org/2000/svg" xmlns:xlink="http://www.w3.org/1999/xlink">
    <!-- Generator: Sketch 54.1 (76490) - https://sketchapp.com -->
    <title>扫一扫</title>
    <desc>Created with Sketch.</desc>
    <g id="页面1" stroke="none" stroke-width="1" fill="none" fill-rule="evenodd">
        <g id="寄件" transform="translate(-383.000000, -121.000000)" fill="#000000" fill-rule="nonzero">
            <g id="编组-2" transform="translate(-13.000000, 106.000000)">
                <g id="1" transform="translate(30.000000, 9.000000)">
                    <g id="编组-9" transform="translate(360.000000, 0.000000)">
                        <g id="扫一扫" transform="translate(6.000000, 6.000000)">
                            <rect id="矩形" opacity="0" x="0" y="0" width="13" height="13"></rect>
                            <path d="M11.1515625,12.330957 L9.54560547,12.330957 L9.54560547,11.7774414 L11.1515625,11.7774414 C11.5717773,11.7774414 11.9132812,11.4359375 11.9132812,11.0157227 L11.9132812,9.41103516 L12.4667969,9.41103516 L12.4667969,11.0169922 C12.4667969,11.7418945 11.8764648,12.330957 11.1515625,12.330957 Z M12.4667969,3.27919922 L11.9132812,3.27919922 L11.9132812,1.67324219 C11.9132812,1.25302734 11.5717773,0.911523438 11.1515625,0.911523438 L9.54560547,0.911523438 L9.54560547,0.358007813 L11.1515625,0.358007813 C11.8764648,0.358007813 12.4667969,0.948339844 12.4667969,1.67324219 L12.4667969,3.27919922 Z M1.04609375,3.27919922 L0.493847656,3.27919922 L0.493847656,1.67324219 C0.493847656,0.948339844 1.08417969,0.358007813 1.80908203,0.358007813 L3.42138672,0.358007813 L3.42138672,0.911523438 L1.80908203,0.911523438 C1.38886719,0.911523438 1.04736328,1.25302734 1.04736328,1.67324219 L1.04609375,3.27919922 L1.04609375,3.27919922 Z M3.42011719,12.330957 L1.8078125,12.330957 C1.08291016,12.330957 0.492578125,11.740625 0.492578125,11.0157227 L0.492578125,9.41103516 L1.04609375,9.41103516 L1.04609375,11.0169922 C1.04609375,11.437207 1.38759766,11.7787109 1.8078125,11.7787109 L3.42011719,11.7787109 L3.42011719,12.330957 Z M1.08798828,6.06708984 L11.8713867,6.06708984 L11.8713867,6.62060547 L1.08798828,6.62060547 L1.08798828,6.06708984 Z" id="形状"></path>
                        </g>
                    </g>
                </g>
            </g>
        </g>
    </g>
</svg>